<svg version="1.1" id="Layer_1" xmlns="http://www.w3.org/2000/svg" xmlns:xlink="http://www.w3.org/1999/xlink" x="0px" y="0px"
	 width="100%" viewBox="0 0 256 256" enable-background="new 0 0 256 256" xml:space="preserve">
<path fill="#FFFFFF" opacity="1.000000" stroke="none" 
	d="
M153.000000,257.000000 
	C102.000000,257.000000 51.500008,257.000000 1.000007,257.000000 
	C1.000005,171.666672 1.000005,86.333351 1.000002,1.000018 
	C86.333321,1.000012 171.666641,1.000012 257.000000,1.000006 
	C257.000000,86.333313 257.000000,171.666626 257.000000,256.999969 
	C222.500000,257.000000 188.000000,257.000000 153.000000,257.000000 
M89.185356,51.060890 
	C87.414108,54.352726 85.642853,57.644562 83.393700,61.465359 
	C81.145103,68.802895 78.088623,76.018013 80.068352,84.659767 
	C81.022964,85.439774 81.977585,86.219772 82.755768,87.679253 
	C82.112877,88.538414 81.469978,89.397583 81.480667,89.383293 
	C83.205902,92.460960 84.529617,94.822342 85.905388,97.890434 
	C85.758392,99.557091 85.161385,101.344078 85.567505,102.862823 
	C86.212753,105.275803 87.493652,107.527191 88.648682,109.773376 
	C88.713722,109.899864 90.073395,109.360626 91.174484,109.737946 
	C92.430412,111.519264 93.686340,113.300583 95.257446,115.668465 
	C97.591972,117.657059 99.987183,119.581146 102.217865,121.680107 
	C102.767487,122.197273 102.781380,123.283791 102.294777,124.054756 
	C99.160934,125.466049 95.816711,126.544029 92.938683,128.360611 
	C87.562492,131.753998 86.781990,138.320221 91.086143,142.860428 
	C91.390297,143.237457 91.694450,143.614487 92.081108,144.681976 
	C98.026245,147.380707 103.926903,150.188629 109.968857,152.649689 
	C110.788979,152.983749 112.316772,151.580475 114.237297,151.050400 
	C114.478455,151.044846 114.719620,151.039291 115.007851,151.787643 
	C116.400269,154.860275 117.792686,157.932892 119.117409,161.837494 
	C119.674988,164.908356 120.232559,167.979218 120.660004,171.821167 
	C121.589699,177.867630 122.519402,183.914093 123.343033,190.781921 
	C124.435089,197.137421 125.333931,203.535568 126.722717,209.825546 
	C127.216873,212.063644 128.900543,214.039124 130.041229,216.134476 
	C131.005402,213.916977 131.973450,211.701126 132.924103,209.477844 
	C132.980850,209.345123 132.898376,209.152878 133.191605,208.233871 
	C134.318527,201.509232 135.576797,194.803207 136.533188,188.054398 
	C137.385483,182.040024 137.903839,175.978333 138.515488,169.478271 
	C138.515488,169.478271 138.669220,169.042175 139.333084,168.685608 
	C139.499115,167.459259 139.665131,166.232910 140.132507,164.269501 
	C140.522751,161.317703 140.912994,158.365921 141.953888,154.929733 
	C147.374481,153.548416 152.795074,152.167099 158.991440,150.752350 
	C161.189819,149.680237 163.616852,148.909866 165.529282,147.460449 
	C167.977097,145.605270 171.611252,144.331299 171.046753,139.248413 
	C171.673935,134.302429 169.363342,131.065598 164.748276,128.389038 
	C162.555176,126.903885 160.362091,125.418732 157.839066,123.305008 
	C157.660065,122.613785 157.095551,121.626129 157.363052,121.278244 
	C159.507202,118.489792 161.808548,115.822197 164.801071,113.028275 
	C165.877411,112.467224 167.493469,112.179222 167.938797,111.298950 
	C170.137222,106.953186 172.025696,102.450615 174.336014,97.607796 
	C174.340790,97.439827 174.345581,97.271858 174.759842,96.687630 
	C174.816452,96.121803 174.873062,95.555977 175.143616,94.439262 
	C175.475433,93.733475 175.807251,93.027695 176.745529,92.153336 
	C176.878845,91.785599 177.012161,91.417862 177.499802,90.618202 
	C177.544403,90.066940 177.589005,89.515686 177.953690,88.192078 
	C180.343765,76.343781 178.744034,65.204041 172.048874,54.249664 
	C169.966003,51.181206 167.883148,48.112747 165.561111,44.445415 
	C163.408981,42.616772 161.256866,40.788132 158.752014,38.372612 
	C155.861481,36.854847 152.970932,35.337086 149.597351,33.292217 
	C145.734192,32.258713 141.871048,31.225212 137.231598,29.940010 
	C134.499130,29.747913 131.766647,29.555819 128.512665,29.165348 
	C127.986259,29.286238 127.459862,29.407129 126.081215,29.537657 
	C124.394547,29.773195 122.707878,30.008736 120.251144,30.197842 
	C108.142616,32.777325 98.063217,38.508732 90.528481,49.199886 
	C90.257744,49.672028 89.987000,50.144169 89.185356,51.060890 
z"/>
<path fill="#252826" opacity="1.000000" stroke="none" 
	d="
M139.831161,165.006561 
	C139.665131,166.232910 139.499115,167.459259 138.862030,168.931366 
	C138.180832,169.482605 138.240356,169.736053 138.569580,169.937515 
	C137.903839,175.978333 137.385483,182.040024 136.533188,188.054398 
	C135.576797,194.803207 134.318527,201.509232 132.649292,208.598984 
	C128.634811,208.188171 130.149780,205.846710 130.540344,203.894531 
	C132.482300,194.187927 131.358307,191.964584 123.449097,189.960556 
	C122.519402,183.914093 121.589699,177.867630 121.085922,171.421570 
	C122.166130,171.046844 122.890709,170.895248 123.463974,171.123550 
	C130.202530,173.807236 131.258621,173.151703 132.014801,165.751846 
	C132.092621,164.990280 132.312622,164.243256 132.503815,163.307617 
	C135.124741,163.915314 137.477951,164.460938 139.831161,165.006561 
z"/>
<path fill="#929393" opacity="1.000000" stroke="none" 
	d="
M91.047142,48.998554 
	C98.063217,38.508732 108.142616,32.777325 120.635117,30.581947 
	C121.803932,32.284740 122.340561,33.867416 123.415222,34.877857 
	C129.013138,40.141247 134.747955,45.259026 140.105621,50.128040 
	C138.281113,52.701622 137.159348,54.283970 135.766998,55.827454 
	C135.022552,55.522205 134.548676,55.255821 133.969345,54.739769 
	C133.582672,54.271320 133.301437,54.052536 133.014542,53.418739 
	C132.960617,44.174152 130.068390,41.082897 121.776962,40.996563 
	C120.786278,40.986248 119.652382,41.280888 118.827843,40.903416 
	C112.549316,38.029110 109.175591,42.921181 105.390945,46.103588 
	C103.759033,47.475822 103.102516,50.008041 101.758987,52.063530 
	C101.515076,52.113770 101.027206,52.213993 100.604851,52.141552 
	C97.455688,51.699104 94.728889,51.329098 91.998024,50.982418 
	C91.993965,51.005741 92.040924,50.999702 91.999832,50.704525 
	C91.654877,49.939083 91.351013,49.468819 91.047142,48.998554 
z"/>
<path fill="#1B3D51" opacity="1.000000" stroke="none" 
	d="
M177.633591,88.964424 
	C177.589005,89.515686 177.544403,90.066940 177.057892,90.956543 
	C176.457016,91.637222 176.298050,91.979568 176.139069,92.321915 
	C175.807251,93.027695 175.475433,93.733475 174.733673,94.765038 
	C174.332611,95.761841 174.341492,96.432861 174.350357,97.103889 
	C174.345581,97.271858 174.340790,97.439827 173.833282,97.858612 
	C171.888992,99.738335 170.447464,101.367256 168.940308,102.641624 
	C164.323364,100.548248 160.932800,97.579048 159.080139,92.631073 
	C160.718155,86.809906 162.322830,81.372780 163.946991,75.544861 
	C163.986084,74.107330 164.005692,73.060593 164.012344,72.007538 
	C163.999390,72.001221 164.022888,72.020332 164.286453,71.928055 
	C165.020859,71.536110 165.491699,71.236458 166.196198,71.049568 
	C166.638031,71.433052 166.846207,71.703758 167.036896,72.312988 
	C167.020752,73.103241 167.022095,73.554977 166.894592,74.308586 
	C166.850632,76.071976 166.935532,77.533478 166.738525,79.241562 
	C167.021484,81.257767 167.586319,83.027397 168.151169,84.797028 
	C168.768051,83.532677 169.384933,82.268318 170.380615,81.077026 
	C171.493988,83.092224 172.228561,85.034378 173.134369,87.429253 
	C177.485168,83.354065 173.174500,80.328636 172.902374,76.757889 
	C173.433105,75.825081 173.908859,75.228958 174.384613,74.632828 
	C175.233887,75.883202 176.616653,77.049965 176.828247,78.400261 
	C177.373260,81.878311 177.399872,85.437599 177.633591,88.964424 
z"/>
<path fill="#31312E" opacity="1.000000" stroke="none" 
	d="
M139.981842,164.638031 
	C137.477951,164.460938 135.124741,163.915314 132.503815,163.307617 
	C132.312622,164.243256 132.092621,164.990280 132.014801,165.751846 
	C131.258621,173.151703 130.202530,173.807236 123.463974,171.123550 
	C122.890709,170.895248 122.166130,171.046844 121.150993,171.036011 
	C120.232559,167.979218 119.674988,164.908356 119.522675,161.367233 
	C120.537590,160.669846 121.174530,160.496475 121.750984,160.203949 
	C122.812721,159.665192 123.838936,159.056442 124.879944,158.476868 
	C124.195129,157.548904 123.479416,156.641632 122.837921,155.684616 
	C122.492821,155.169769 122.275002,154.569595 122.251709,154.003098 
	C122.671654,153.999268 122.839638,154.000244 123.411209,154.053329 
	C127.208870,154.075623 130.602966,154.045822 134.434479,154.008759 
	C136.911316,154.000626 138.950729,153.999756 141.035980,154.359879 
	C141.155594,154.951950 141.229416,155.183029 141.303253,155.414124 
	C140.912994,158.365921 140.522751,161.317703 139.981842,164.638031 
z"/>
<path fill="#384A56" opacity="1.000000" stroke="none" 
	d="
M167.020432,78.994995 
	C166.935532,77.533478 166.850632,76.071976 167.190399,74.269272 
	C167.428177,73.276878 167.241287,72.625671 167.054413,71.974472 
	C166.846207,71.703758 166.638031,71.433052 166.320770,70.779846 
	C166.185165,69.714249 166.158661,69.031158 166.132156,68.348068 
	C165.425278,68.897484 164.718384,69.446899 163.719208,69.873283 
	C162.634186,69.503288 161.841446,69.256325 161.053925,68.628769 
	C162.817947,63.868332 164.576721,59.488480 166.134888,55.608234 
	C168.596313,55.342140 170.324875,55.155270 172.053452,54.968399 
	C178.744034,65.204041 180.343765,76.343781 177.793640,88.578247 
	C177.399872,85.437599 177.373260,81.878311 176.828247,78.400261 
	C176.616653,77.049965 175.233887,75.883202 174.384613,74.632828 
	C173.908859,75.228958 173.433105,75.825081 172.544861,76.731087 
	C171.093307,77.694633 170.054260,78.348305 168.682526,79.000534 
	C167.906708,78.997734 167.463577,78.996361 167.020432,78.994995 
M169.994843,66.999825 
	C169.994843,66.999825 170.011948,66.966438 170.070145,67.605286 
	C170.687958,68.059364 171.305771,68.513435 172.221939,69.599907 
	C172.788864,70.633499 173.355804,71.667091 173.922729,72.700684 
	C174.424118,72.453125 174.925491,72.205566 175.426880,71.958008 
	C174.043335,69.246162 172.807251,66.438332 171.155548,63.901043 
	C170.813004,63.374836 168.927826,63.852852 167.753616,63.868038 
	C168.182373,64.594780 168.611130,65.321518 169.240829,66.482483 
	C169.442459,66.749428 169.706238,66.920715 169.994843,66.999825 
z"/>
<path fill="#68757D" opacity="1.000000" stroke="none" 
	d="
M159.104736,38.959488 
	C161.256866,40.788132 163.408981,42.616772 165.310059,44.736530 
	C162.712051,47.003235 160.174301,48.798588 158.081635,51.014332 
	C156.546844,52.639404 154.830292,54.714691 154.558716,56.769596 
	C154.118362,60.101681 154.796295,63.581562 154.714706,67.218292 
	C151.551117,73.511864 151.551117,73.511864 147.101318,68.692963 
	C146.857986,66.877747 146.753113,65.464745 147.031738,64.000633 
	C151.399918,60.714912 151.402069,56.459530 150.488739,51.967777 
	C148.785324,43.590343 151.767517,39.089111 159.104736,38.959488 
z"/>
<path fill="#646D72" opacity="1.000000" stroke="none" 
	d="
M155.002106,66.999046 
	C154.796295,63.581562 154.118362,60.101681 154.558716,56.769596 
	C154.830292,54.714691 156.546844,52.639404 158.081635,51.014332 
	C160.174301,48.798588 162.712051,47.003235 165.429626,45.035965 
	C167.883148,48.112747 169.966003,51.181206 172.051163,54.609032 
	C170.324875,55.155270 168.596313,55.342140 166.134888,55.608234 
	C164.576721,59.488480 162.817947,63.868332 161.027435,68.620651 
	C160.995728,68.993118 160.943756,68.973991 160.573563,68.981163 
	C158.469620,68.325241 156.735855,67.662140 155.002106,66.999046 
z"/>
<path fill="#174D6C" opacity="1.000000" stroke="none" 
	d="
M103.041565,124.108566 
	C102.781380,123.283791 102.767487,122.197273 102.217865,121.680107 
	C99.987183,119.581146 97.591972,117.657059 95.336067,115.078278 
	C99.615768,114.983368 103.816849,115.478653 108.392906,116.154594 
	C114.850113,116.902496 120.932343,117.469734 126.963928,118.398712 
	C120.917595,124.920021 113.647034,126.500198 105.837585,124.365181 
	C105.837585,126.948311 105.837585,129.147369 105.615463,131.307373 
	C105.393333,131.268311 105.005173,131.038528 104.922668,130.835541 
	C104.692680,130.365601 104.476997,130.176407 104.079010,129.753540 
	C103.593155,128.663452 103.221397,127.884750 102.910263,126.734787 
	C102.994438,125.611870 103.018005,124.860214 103.041565,124.108566 
z"/>
<path fill="#88898A" opacity="1.000000" stroke="none" 
	d="
M136.037567,55.866318 
	C137.159348,54.283970 138.281113,52.701622 140.105621,50.128040 
	C134.747955,45.259026 129.013138,40.141247 123.415222,34.877857 
	C122.340561,33.867416 121.803932,32.284740 121.020142,30.605164 
	C122.707878,30.008736 124.394547,29.773195 126.524170,29.916113 
	C127.249153,31.072624 127.531174,31.850677 128.306747,33.990330 
	C128.701569,31.479189 128.867874,30.421455 129.034180,29.363724 
	C131.766647,29.555819 134.499130,29.747913 137.564850,30.415997 
	C133.766556,35.012047 133.664154,35.085880 137.641510,40.602547 
	C141.200546,45.538994 143.491455,50.792404 143.008224,57.003418 
	C143.001541,57.003216 143.007431,57.014008 142.668060,57.058388 
	C141.889572,58.034195 141.450439,58.965622 140.683716,59.806274 
	C138.916580,58.432438 137.477081,57.149380 136.037567,55.866318 
z"/>
<path fill="#818383" opacity="1.000000" stroke="none" 
	d="
M143.014908,57.003624 
	C143.491455,50.792404 141.200546,45.538994 137.641510,40.602547 
	C133.664154,35.085880 133.766556,35.012047 137.953003,30.541845 
	C141.871048,31.225212 145.734192,32.258713 149.685852,33.904892 
	C144.402344,36.987732 144.579422,41.731400 145.074768,46.450035 
	C145.259644,48.211094 146.282578,49.867451 146.686783,51.625935 
	C147.381363,54.647701 147.601715,57.513783 143.014908,57.003624 
z"/>
<path fill="#708A9A" opacity="1.000000" stroke="none" 
	d="
M114.960777,151.033722 
	C114.719620,151.039291 114.478455,151.044846 113.536385,151.002350 
	C107.529861,148.988159 102.224258,147.022018 97.127708,144.878693 
	C96.537117,143.564056 95.737473,142.426590 94.833664,141.140976 
	C95.610291,141.057922 96.400673,140.973404 97.537315,140.959625 
	C104.340134,143.345627 110.796700,145.660873 117.704025,147.961365 
	C122.929039,147.966858 127.703262,147.995590 132.477524,148.004669 
	C136.308990,148.011948 140.140503,147.995407 144.225876,148.140030 
	C144.988953,148.878128 145.498138,149.465622 145.779663,150.318695 
	C144.029556,151.022812 142.507156,151.461334 140.541992,151.909668 
	C138.028168,152.104050 135.957077,152.288666 133.458282,152.390045 
	C129.686249,152.378372 126.341934,152.449905 122.785233,152.373901 
	C122.053871,152.139694 121.534904,152.053024 120.768097,151.663391 
	C118.667107,151.251541 116.813942,151.142639 114.960777,151.033722 
z"/>
<path fill="#797C7C" opacity="1.000000" stroke="none" 
	d="
M143.008224,57.003418 
	C147.601715,57.513783 147.381363,54.647701 146.686783,51.625935 
	C146.282578,49.867451 145.259644,48.211094 145.074768,46.450035 
	C144.579422,41.731400 144.402344,36.987732 149.927383,34.168442 
	C152.970932,35.337086 155.861481,36.854847 158.928375,38.666050 
	C151.767517,39.089111 148.785324,43.590343 150.488739,51.967777 
	C151.402069,56.459530 151.399918,60.714912 146.854675,63.734715 
	C145.208054,62.308880 144.122009,61.097858 143.133316,59.649139 
	C143.156250,58.612293 143.081833,57.813152 143.007431,57.014008 
	C143.007431,57.014008 143.001541,57.003216 143.008224,57.003418 
z"/>
<path fill="#173549" opacity="1.000000" stroke="none" 
	d="
M164.061783,113.117622 
	C161.808548,115.822197 159.507202,118.489792 157.363052,121.278244 
	C157.095551,121.626129 157.660065,122.613785 157.742584,123.810989 
	C157.428162,126.208366 157.210236,128.099762 156.631653,129.955109 
	C153.795273,132.574081 151.319550,135.229126 148.581192,137.677032 
	C147.094711,134.705658 145.870865,131.941391 144.974518,129.026733 
	C146.868195,126.581482 148.434357,124.286621 150.358093,121.957001 
	C155.034729,120.412415 158.782654,118.421082 159.191040,113.073730 
	C159.247757,112.331306 160.376831,111.670799 161.299423,111.105980 
	C162.413513,111.865601 163.237640,112.491615 164.061783,113.117622 
z"/>
<path fill="#353835" opacity="1.000000" stroke="none" 
	d="
M123.396057,190.371246 
	C131.358307,191.964584 132.482300,194.187927 130.540344,203.894531 
	C130.149780,205.846710 128.634811,208.188171 132.493835,208.976212 
	C132.898376,209.152878 132.980850,209.345123 132.924103,209.477844 
	C131.973450,211.701126 131.005402,213.916977 130.041229,216.134476 
	C128.900543,214.039124 127.216873,212.063644 126.722717,209.825546 
	C125.333931,203.535568 124.435089,197.137421 123.396057,190.371246 
z"/>
<path fill="#2B495F" opacity="1.000000" stroke="none" 
	d="
M164.431427,113.072952 
	C163.237640,112.491615 162.413513,111.865601 161.244324,110.767853 
	C159.273071,110.193214 157.646881,110.090309 155.862091,109.745453 
	C155.138779,109.000282 154.574066,108.497063 154.318298,107.839828 
	C154.753510,106.441597 154.841339,105.192032 155.013489,103.954201 
	C155.480225,100.598351 153.225525,96.698006 157.001801,94.367996 
	C157.333267,96.163841 157.652939,97.589737 157.806458,99.101562 
	C157.755905,99.456314 157.871490,99.725136 158.214600,100.263885 
	C159.302704,101.385803 160.361572,102.113777 160.986481,103.113129 
	C162.822327,106.048988 166.823105,106.043503 169.005920,102.996170 
	C170.447464,101.367256 171.888992,99.738335 173.677032,98.056389 
	C172.025696,102.450615 170.137222,106.953186 167.938797,111.298950 
	C167.493469,112.179222 165.877411,112.467224 164.431427,113.072952 
z"/>
<path fill="#646D72" opacity="1.000000" stroke="none" 
	d="
M165.073029,128.980560 
	C169.363342,131.065598 171.673935,134.302429 170.665924,139.821808 
	C166.189850,142.946457 162.094589,145.497726 157.661835,148.178284 
	C155.913010,148.554688 154.501709,148.801788 152.968933,148.756287 
	C152.562759,147.682480 152.278091,146.901291 152.357971,146.048126 
	C156.759689,143.641708 160.796860,141.307266 165.151703,138.794830 
	C165.074722,136.671112 164.497833,134.738922 164.351578,132.774673 
	C164.259262,131.534760 164.810471,130.246902 165.073029,128.980560 
z"/>
<path fill="#486E7D" opacity="1.000000" stroke="none" 
	d="
M108.017929,115.973930 
	C103.816849,115.478653 99.615768,114.983368 95.178482,114.784996 
	C93.686340,113.300583 92.430412,111.519264 91.222198,109.085045 
	C95.773468,108.499878 100.277023,108.567612 105.197319,108.754608 
	C106.741257,108.936592 107.868462,108.999321 109.000412,109.448517 
	C110.049942,111.362015 111.094734,112.889053 112.143677,114.422165 
	C110.956451,114.868698 109.487190,115.421310 108.017929,115.973930 
z"/>
<path fill="#6A8396" opacity="1.000000" stroke="none" 
	d="
M102.668167,124.081665 
	C103.018005,124.860214 102.994438,125.611870 102.660782,126.932739 
	C101.171974,128.827576 99.892914,130.078140 98.834213,131.493500 
	C96.143486,135.090729 93.551384,138.761734 90.919792,142.403198 
	C86.781990,138.320221 87.562492,131.753998 92.938683,128.360611 
	C95.816711,126.544029 99.160934,125.466049 102.668167,124.081665 
z"/>
<path fill="#1F6186" opacity="1.000000" stroke="none" 
	d="
M85.853325,97.183731 
	C84.529617,94.822342 83.205902,92.460960 81.480667,89.383293 
	C81.469978,89.397583 82.112877,88.538414 83.098480,87.340714 
	C83.608528,86.974228 83.775871,86.946274 84.010033,87.280136 
	C85.715141,89.079170 87.353424,90.516396 89.109573,92.234589 
	C89.851616,93.011742 90.475777,93.507935 91.104721,94.368233 
	C91.796165,97.484756 92.482819,100.237175 93.102890,103.259552 
	C93.013199,103.713432 92.990089,103.897346 92.639503,104.212723 
	C91.117485,104.631645 89.922928,104.919113 89.596016,104.997780 
	C88.159584,101.998772 87.006454,99.591255 85.853325,97.183731 
z"/>
<path fill="#829CAD" opacity="1.000000" stroke="none" 
	d="
M91.002968,142.631805 
	C93.551384,138.761734 96.143486,135.090729 98.834213,131.493500 
	C99.892914,130.078140 101.171974,128.827576 102.600159,127.304016 
	C103.221397,127.884750 103.593155,128.663452 103.997971,129.976837 
	C104.031044,130.511520 104.007339,130.986191 103.668228,131.130447 
	C101.283104,134.479431 99.237083,137.684158 97.191063,140.888885 
	C96.400673,140.973404 95.610291,141.057922 94.833664,141.140976 
	C95.737473,142.426590 96.537117,143.564056 96.773102,144.797333 
	C94.805824,144.592590 93.402206,144.292068 91.998596,143.991531 
	C91.694450,143.614487 91.390297,143.237457 91.002968,142.631805 
z"/>
<path fill="#97BAC9" opacity="1.000000" stroke="none" 
	d="
M85.879356,97.537079 
	C87.006454,99.591255 88.159584,101.998772 89.596016,104.997780 
	C89.922928,104.919113 91.117485,104.631645 92.798965,104.515892 
	C94.525314,105.094856 95.764717,105.502113 97.340820,105.911560 
	C98.123497,105.862747 98.569481,105.811760 99.378151,105.835892 
	C101.159653,106.255585 102.578468,106.600143 104.063446,107.173965 
	C104.346603,107.813927 104.563591,108.224640 104.780586,108.635345 
	C100.277023,108.567612 95.773468,108.499878 91.050201,108.781693 
	C90.073395,109.360626 88.713722,109.899864 88.648682,109.773376 
	C87.493652,107.527191 86.212753,105.275803 85.567505,102.862823 
	C85.161385,101.344078 85.758392,99.557091 85.879356,97.537079 
z"/>
<path fill="#384A56" opacity="1.000000" stroke="none" 
	d="
M92.039856,144.336761 
	C93.402206,144.292068 94.805824,144.592590 96.564041,144.974503 
	C102.224258,147.022018 107.529861,148.988159 113.176186,150.967957 
	C112.316772,151.580475 110.788979,152.983749 109.968857,152.649689 
	C103.926903,150.188629 98.026245,147.380707 92.039856,144.336761 
z"/>
<path fill="#3D5B70" opacity="1.000000" stroke="none" 
	d="
M153.090408,149.048904 
	C154.501709,148.801788 155.913010,148.554688 157.674957,148.634979 
	C158.088943,149.570190 158.152298,150.177979 158.215652,150.785797 
	C152.795074,152.167099 147.374481,153.548416 141.628571,155.171936 
	C141.229416,155.183029 141.155594,154.951950 141.051422,154.010513 
	C141.008942,152.833389 140.996841,152.366638 140.984741,151.899872 
	C142.507156,151.461334 144.029556,151.022812 146.197449,150.292679 
	C148.925430,149.683685 151.007919,149.366302 153.090408,149.048904 
z"/>
<path fill="#384A56" opacity="1.000000" stroke="none" 
	d="
M164.910645,128.684799 
	C164.810471,130.246902 164.259262,131.534760 164.351578,132.774673 
	C164.497833,134.738922 165.074722,136.671112 165.135468,138.449387 
	C162.198486,135.518326 159.595398,132.754745 156.992325,129.991165 
	C157.210236,128.099762 157.428162,126.208366 157.907532,124.125275 
	C160.362091,125.418732 162.555176,126.903885 164.910645,128.684799 
z"/>
<path fill="#353835" opacity="1.000000" stroke="none" 
	d="
M114.984314,151.410675 
	C116.813942,151.142639 118.667107,151.251541 120.779846,151.966370 
	C121.359535,153.050858 121.679642,153.529388 121.999756,154.007919 
	C122.275002,154.569595 122.492821,155.169769 122.837921,155.684616 
	C123.479416,156.641632 124.195129,157.548904 124.879944,158.476868 
	C123.838936,159.056442 122.812721,159.665192 121.750984,160.203949 
	C121.174530,160.496475 120.537590,160.669846 119.556519,160.951248 
	C117.792686,157.932892 116.400269,154.860275 114.984314,151.410675 
z"/>
<path fill="#9C9B99" opacity="1.000000" stroke="none" 
	d="
M79.981789,83.983109 
	C78.088623,76.018013 81.145103,68.802895 83.938736,61.222572 
	C84.687523,60.996140 84.891289,61.012497 85.068909,61.426472 
	C85.039482,63.143265 85.036209,64.462440 84.985893,66.168663 
	C84.862312,67.069290 84.785774,67.582870 84.372490,68.133774 
	C83.660828,70.085609 83.285912,72.000122 82.907272,74.298553 
	C82.881805,75.448853 82.860046,76.215240 82.578629,77.123558 
	C81.539909,79.504692 80.760849,81.743904 79.981789,83.983109 
z"/>
<path fill="#384A56" opacity="1.000000" stroke="none" 
	d="
M158.603546,150.769073 
	C158.152298,150.177979 158.088943,149.570190 158.012466,148.505692 
	C162.094589,145.497726 166.189850,142.946457 170.567078,140.232025 
	C171.611252,144.331299 167.977097,145.605270 165.529282,147.460449 
	C163.616852,148.909866 161.189819,149.680237 158.603546,150.769073 
z"/>
<path fill="#ABA8A0" opacity="1.000000" stroke="none" 
	d="
M85.095047,61.028854 
	C84.891289,61.012497 84.687523,60.996140 84.177689,60.958088 
	C85.642853,57.644562 87.414108,54.352726 89.829575,50.958694 
	C90.996162,50.904232 91.518547,50.951969 92.040924,50.999702 
	C92.040924,50.999702 91.993965,51.005741 91.970810,51.360298 
	C91.904884,52.469425 91.862106,53.223999 91.492477,54.043831 
	C89.142105,56.415672 87.118576,58.722260 85.095047,61.028854 
z"/>
<path fill="#97BAC9" opacity="1.000000" stroke="none" 
	d="
M80.025070,84.321442 
	C80.760849,81.743904 81.539909,79.504692 82.911575,77.376938 
	C83.650520,80.631706 83.796867,83.775009 83.943207,86.918320 
	C83.775871,86.946274 83.608528,86.974228 83.186699,87.000977 
	C81.977585,86.219772 81.022964,85.439774 80.025070,84.321442 
z"/>
<path fill="#929393" opacity="1.000000" stroke="none" 
	d="
M128.773438,29.264536 
	C128.867874,30.421455 128.701569,31.479189 128.306747,33.990330 
	C127.531174,31.850677 127.249153,31.072624 126.950294,29.911293 
	C127.459862,29.407129 127.986259,29.286238 128.773438,29.264536 
z"/>
<path fill="#384A56" opacity="1.000000" stroke="none" 
	d="
M174.555099,96.895760 
	C174.341492,96.432861 174.332611,95.761841 174.626709,95.040482 
	C174.873062,95.555977 174.816452,96.121803 174.555099,96.895760 
z"/>
<path fill="#C9D2CA" opacity="1.000000" stroke="none" 
	d="
M91.999832,50.704525 
	C91.518547,50.951969 90.996162,50.904232 90.095016,50.736404 
	C89.987000,50.144169 90.257744,49.672028 90.787811,49.099220 
	C91.351013,49.468819 91.654877,49.939083 91.999832,50.704525 
z"/>
<path fill="#31312E" opacity="1.000000" stroke="none" 
	d="
M138.542542,169.707886 
	C138.240356,169.736053 138.180832,169.482605 138.530090,169.109650 
	C138.669220,169.042175 138.515488,169.478271 138.542542,169.707886 
z"/>
<path fill="#384A56" opacity="1.000000" stroke="none" 
	d="
M176.442307,92.237625 
	C176.298050,91.979568 176.457016,91.637222 176.880737,91.172501 
	C177.012161,91.417862 176.878845,91.785599 176.442307,92.237625 
z"/>
<path fill="#D6DACF" opacity="1.000000" stroke="none" 
	d="
M143.035980,59.886837 
	C144.122009,61.097858 145.208054,62.308880 146.471161,63.785820 
	C146.753113,65.464745 146.857986,66.877747 146.980743,68.655312 
	C146.998611,69.019867 146.771973,68.910606 146.341156,68.939621 
	C143.841385,68.961731 141.772415,68.954826 139.713257,68.588684 
	C137.734283,67.533691 135.745514,66.837944 133.722809,65.810455 
	C133.187225,64.305527 132.685577,63.132339 131.827835,61.763939 
	C129.332657,61.428249 127.193573,61.287769 124.622589,61.088924 
	C121.747215,61.300228 119.303741,61.569901 116.643082,61.842384 
	C116.425896,61.845200 115.993958,61.891418 115.966949,61.597164 
	C115.953560,60.908882 115.967178,60.514854 116.261719,59.809555 
	C121.791199,59.239464 127.039757,58.980640 131.619492,58.754799 
	C132.609070,57.237221 133.341934,56.113327 134.074799,54.989437 
	C134.548676,55.255821 135.022552,55.522205 135.766998,55.827454 
	C137.477081,57.149380 138.916580,58.432438 141.019714,59.858894 
	C142.134216,59.963802 142.585098,59.925320 143.035980,59.886837 
z"/>
<path fill="#F9FAF0" opacity="1.000000" stroke="none" 
	d="
M133.969345,54.739769 
	C133.341934,56.113327 132.609070,57.237221 131.619492,58.754799 
	C127.039757,58.980640 121.791199,59.239464 115.827866,59.799778 
	C111.751556,59.689812 108.390015,59.278358 105.203255,58.636070 
	C106.208679,56.905823 107.039330,55.406410 107.911270,53.649525 
	C107.955688,53.218235 107.958817,53.044422 108.328384,52.877121 
	C109.422928,52.823254 110.151024,52.762878 111.301125,52.778145 
	C116.164406,52.846321 120.605698,52.838856 125.468231,52.900131 
	C127.596535,52.966370 129.303589,52.963863 131.266220,53.078655 
	C132.021271,53.408554 132.520737,53.621155 133.020203,53.833755 
	C133.301437,54.052536 133.582672,54.271320 133.969345,54.739769 
z"/>
<path fill="#9C9B99" opacity="1.000000" stroke="none" 
	d="
M133.014542,53.418743 
	C132.520737,53.621155 132.021271,53.408554 131.259842,52.693512 
	C129.591660,41.812340 120.913376,44.921215 114.592148,43.042294 
	C113.663078,44.877941 112.857040,46.470493 112.002487,48.405235 
	C111.595680,50.065784 111.237404,51.384144 110.879128,52.702499 
	C110.151024,52.762878 109.422928,52.823254 108.119102,52.622330 
	C106.671265,52.270878 105.799156,52.180729 104.561623,52.076454 
	C103.465103,52.045982 102.733994,52.029636 102.002892,52.013290 
	C103.102516,50.008041 103.759033,47.475822 105.390945,46.103588 
	C109.175591,42.921181 112.549316,38.029110 118.827843,40.903416 
	C119.652382,41.280888 120.786278,40.986248 121.776962,40.996563 
	C130.068390,41.082897 132.960617,44.174152 133.014542,53.418743 
z"/>
<path fill="#C9D2CA" opacity="1.000000" stroke="none" 
	d="
M91.819321,53.978573 
	C91.862106,53.223999 91.904884,52.469425 91.974869,51.336975 
	C94.728889,51.329098 97.455688,51.699104 100.593887,52.531952 
	C102.061615,56.630608 98.487923,56.640316 96.537292,58.152184 
	C95.143196,57.977451 94.127083,57.867699 92.906601,57.484001 
	C92.407944,56.132900 92.113632,55.055737 91.819321,53.978573 
z"/>
<path fill="#D6DACF" opacity="1.000000" stroke="none" 
	d="
M96.915260,58.217171 
	C98.487923,56.640316 102.061615,56.630608 101.016243,52.604393 
	C101.027206,52.213993 101.515076,52.113770 101.758987,52.063530 
	C102.733994,52.029636 103.465103,52.045982 104.646355,52.397095 
	C106.020996,53.123577 106.945488,53.515285 107.869980,53.906998 
	C107.039330,55.406410 106.208679,56.905823 104.777550,58.700676 
	C101.756470,58.736469 99.335861,58.476818 96.915260,58.217171 
z"/>
<path fill="#2B495F" opacity="1.000000" stroke="none" 
	d="
M161.022217,69.001236 
	C161.841446,69.256325 162.634186,69.503288 163.712280,70.210648 
	C164.006027,71.120811 164.014450,71.570572 164.022888,72.020332 
	C164.022888,72.020332 163.999390,72.001221 163.705750,72.149597 
	C162.115387,73.718582 160.761642,75.147270 163.927490,75.935646 
	C162.322830,81.372780 160.718155,86.809906 158.744141,92.633087 
	C157.927979,93.021309 157.481155,93.023476 157.020660,92.577034 
	C157.322968,88.076645 157.638947,84.024849 157.972717,79.576569 
	C158.974930,75.778046 159.959335,72.376022 160.943756,68.973991 
	C160.943756,68.973991 160.995728,68.993118 161.022217,69.001236 
z"/>
<path fill="#153B54" opacity="1.000000" stroke="none" 
	d="
M157.034348,93.025635 
	C157.481155,93.023476 157.927979,93.021309 158.710785,93.017120 
	C160.932800,97.579048 164.323364,100.548248 168.940308,102.641624 
	C166.823105,106.043503 162.822327,106.048988 160.986481,103.113129 
	C160.361572,102.113777 159.302704,101.385803 158.216187,100.019272 
	C157.990250,99.504715 157.972595,99.015625 157.972595,99.015625 
	C157.652939,97.589737 157.333267,96.163841 157.011368,94.124825 
	C157.009140,93.511696 157.034348,93.025635 157.034348,93.025635 
z"/>
<path fill="#3D5B70" opacity="1.000000" stroke="none" 
	d="
M169.015213,79.001968 
	C170.054260,78.348305 171.093307,77.694633 172.489868,77.067780 
	C173.174500,80.328636 177.485168,83.354065 173.134369,87.429253 
	C172.228561,85.034378 171.493988,83.092224 170.136414,80.908783 
	C169.347366,80.112320 169.181290,79.557152 169.015213,79.001968 
z"/>
<path fill="#244557" opacity="1.000000" stroke="none" 
	d="
M168.682526,79.000542 
	C169.181290,79.557152 169.347366,80.112320 169.757629,80.835724 
	C169.384933,82.268318 168.768051,83.532677 168.151169,84.797028 
	C167.586319,83.027397 167.021484,81.257767 166.738525,79.241562 
	C167.463577,78.996361 167.906708,78.997734 168.682526,79.000542 
z"/>
<path fill="#3D5B70" opacity="1.000000" stroke="none" 
	d="
M164.286438,71.928055 
	C164.014450,71.570572 164.006027,71.120811 164.004547,70.333679 
	C164.718384,69.446899 165.425278,68.897484 166.132156,68.348068 
	C166.158661,69.031158 166.185165,69.714249 166.087112,70.667068 
	C165.491699,71.236458 165.020859,71.536110 164.286438,71.928055 
z"/>
<path fill="#3D5B70" opacity="1.000000" stroke="none" 
	d="
M163.946991,75.544861 
	C160.761642,75.147270 162.115387,73.718582 163.718719,72.155914 
	C164.005692,73.060593 163.986084,74.107330 163.946991,75.544861 
z"/>
<path fill="#244557" opacity="1.000000" stroke="none" 
	d="
M167.036896,72.312988 
	C167.241287,72.625671 167.428177,73.276878 167.319244,73.967392 
	C167.022095,73.554977 167.020752,73.103241 167.036896,72.312988 
z"/>
<path fill="#353835" opacity="1.000000" stroke="none" 
	d="
M122.997612,152.521454 
	C126.341934,152.449905 129.686249,152.378372 133.485504,152.642532 
	C133.959305,153.324158 133.978180,153.670090 133.997055,154.016022 
	C130.602966,154.045822 127.208870,154.075623 123.415604,153.683334 
	C123.010155,153.014633 123.003883,152.768051 122.997612,152.521454 
z"/>
<path fill="#384A56" opacity="1.000000" stroke="none" 
	d="
M134.434479,154.008759 
	C133.978180,153.670090 133.959305,153.324158 133.913208,152.725754 
	C135.957077,152.288666 138.028168,152.104050 140.541992,151.909668 
	C140.996841,152.366638 141.008942,152.833389 141.005615,153.649521 
	C138.950729,153.999756 136.911316,154.000626 134.434479,154.008759 
z"/>
<path fill="#384A56" opacity="1.000000" stroke="none" 
	d="
M122.785233,152.373901 
	C123.003883,152.768051 123.010155,153.014633 123.012024,153.631226 
	C122.839638,154.000244 122.671654,153.999268 122.251709,154.003098 
	C121.679642,153.529388 121.359535,153.050858 121.027679,152.269333 
	C121.534904,152.053024 122.053871,152.139694 122.785233,152.373901 
z"/>
<path fill="#173549" opacity="1.000000" stroke="none" 
	d="
M169.039886,66.048264 
	C168.611130,65.321518 168.182373,64.594780 167.753601,63.868042 
	C168.927826,63.852852 170.813004,63.374836 171.155548,63.901043 
	C172.807251,66.438332 174.043335,69.246162 175.426880,71.958008 
	C174.925491,72.205566 174.424118,72.453125 173.922729,72.700684 
	C173.355804,71.667091 172.788864,70.633499 171.962799,69.022011 
	C171.139755,67.951553 170.575851,67.459000 170.011948,66.966438 
	C170.011948,66.966438 169.994843,66.999825 169.912598,66.779648 
	C169.632904,66.286919 169.369415,66.116516 169.039886,66.048264 
z"/>
<path fill="#3D5B70" opacity="1.000000" stroke="none" 
	d="
M170.041046,67.285858 
	C170.575851,67.459000 171.139755,67.951553 171.813629,68.705811 
	C171.305771,68.513435 170.687958,68.059364 170.041046,67.285858 
z"/>
<path fill="#3D5B70" opacity="1.000000" stroke="none" 
	d="
M169.140350,66.265373 
	C169.369415,66.116516 169.632904,66.286919 169.931259,66.777908 
	C169.706238,66.920715 169.442459,66.749428 169.140350,66.265373 
z"/>
<path fill="#5A6C7A" opacity="1.000000" stroke="none" 
	d="
M160.573563,68.981163 
	C159.959335,72.376022 158.974930,75.778046 157.643219,79.729797 
	C155.064529,81.074432 152.833145,81.869339 150.204514,82.805763 
	C149.414948,80.830284 148.627197,78.859344 147.773529,76.496887 
	C147.395721,73.707123 147.083847,71.308868 146.771973,68.910606 
	C146.771973,68.910606 146.998611,69.019867 147.119202,69.057518 
	C151.551117,73.511864 151.551117,73.511864 154.714706,67.218292 
	C156.735855,67.662140 158.469620,68.325241 160.573563,68.981163 
z"/>
<path fill="#104160" opacity="1.000000" stroke="none" 
	d="
M105.837585,131.346420 
	C105.837585,129.147369 105.837585,126.948311 105.837585,124.365181 
	C113.647034,126.500198 120.917595,124.920021 127.406281,118.376160 
	C130.267075,117.993088 132.634857,117.994286 135.002045,118.401443 
	C135.270264,121.928085 134.471619,124.323845 131.019073,125.191467 
	C130.332733,125.363937 129.583588,126.088646 129.255035,126.752518 
	C127.129372,131.047638 123.450813,132.098831 119.054733,132.025772 
	C114.855354,131.955963 110.652458,132.097275 106.281029,132.076080 
	C105.912621,131.830795 105.821495,131.610809 105.837585,131.346420 
z"/>
<path fill="#517682" opacity="1.000000" stroke="none" 
	d="
M135.002655,117.995483 
	C132.634857,117.994286 130.267075,117.993088 127.456924,118.014435 
	C120.932343,117.469734 114.850113,116.902496 108.392906,116.154594 
	C109.487190,115.421310 110.956451,114.868698 112.143677,114.422165 
	C111.094734,112.889053 110.049942,111.362015 109.368408,109.410248 
	C110.849625,109.292503 111.967590,109.599480 113.327644,110.249161 
	C117.653107,110.753105 121.761467,110.689804 125.812592,111.140785 
	C129.617249,111.564354 133.361420,112.531288 137.115067,113.603058 
	C138.018524,115.271187 138.939102,116.595413 139.454865,117.915070 
	C137.700912,117.938828 136.351776,117.967155 135.002655,117.995483 
z"/>
<path fill="#EFF6F8" opacity="1.000000" stroke="none" 
	d="
M105.615463,131.307373 
	C105.821495,131.610809 105.912621,131.830795 106.421387,132.376846 
	C107.965759,134.216125 109.199692,135.684937 110.597267,137.466904 
	C112.773438,140.185181 114.785957,142.590271 116.892761,145.363831 
	C117.075775,146.480240 117.164520,147.228180 117.253265,147.976120 
	C110.796700,145.660873 104.340134,143.345627 97.537315,140.959625 
	C99.237083,137.684158 101.283104,134.479431 103.913155,131.230499 
	C104.666519,131.137024 104.835846,131.087769 105.005173,131.038528 
	C105.005173,131.038528 105.393333,131.268311 105.615463,131.307373 
z"/>
<path fill="#104160" opacity="1.000000" stroke="none" 
	d="
M104.922668,130.835541 
	C104.835846,131.087769 104.666519,131.137024 104.252266,131.086243 
	C104.007339,130.986191 104.031044,130.511520 104.112076,130.288239 
	C104.476997,130.176407 104.692680,130.365601 104.922668,130.835541 
z"/>
<path fill="#818383" opacity="1.000000" stroke="none" 
	d="
M143.133316,59.649139 
	C142.585098,59.925320 142.134216,59.963802 141.347321,59.949669 
	C141.450439,58.965622 141.889572,58.034195 142.668060,57.058388 
	C143.081833,57.813152 143.156250,58.612293 143.133316,59.649139 
z"/>
<path fill="#19303F" opacity="1.000000" stroke="none" 
	d="
M117.704025,147.961365 
	C117.164520,147.228180 117.075775,146.480240 117.322983,145.363892 
	C122.230217,144.014267 127.575424,144.171875 131.158691,141.736771 
	C134.863251,139.219238 137.779922,137.422272 142.277359,139.267944 
	C143.063370,140.717285 143.664032,141.894394 144.218842,143.361786 
	C144.136063,143.844452 144.099106,144.036850 143.847473,144.239288 
	C143.632812,144.249329 143.346466,144.566498 143.346466,144.566498 
	C143.346466,144.566498 143.508438,144.961929 143.470734,145.268433 
	C143.612686,146.379761 143.792328,147.184586 143.971985,147.989426 
	C140.140503,147.995407 136.308990,148.011948 132.477524,148.004669 
	C127.703262,147.995590 122.929039,147.966858 117.704025,147.961365 
z"/>
<path fill="#929393" opacity="1.000000" stroke="none" 
	d="
M144.062149,144.229263 
	C144.099106,144.036850 144.136063,143.844452 144.515045,143.376663 
	C146.262772,142.041031 147.668472,140.980820 149.334457,140.141403 
	C150.394302,142.281509 151.193863,144.200806 151.993408,146.120102 
	C152.278091,146.901291 152.562759,147.682480 152.968933,148.756287 
	C151.007919,149.366302 148.925430,149.683685 146.425140,150.027100 
	C145.498138,149.465622 144.988953,148.878128 144.225876,148.140030 
	C143.792328,147.184586 143.612686,146.379761 143.586578,145.168915 
	C143.879913,144.604630 143.987259,144.426743 144.062149,144.229263 
z"/>
<path fill="#153B54" opacity="1.000000" stroke="none" 
	d="
M110.433624,137.153732 
	C109.199692,135.684937 107.965759,134.216125 106.591476,132.446564 
	C110.652458,132.097275 114.855354,131.955963 119.054733,132.025772 
	C123.450813,132.098831 127.129372,131.047638 129.255035,126.752518 
	C129.583588,126.088646 130.332733,125.363937 131.019073,125.191467 
	C134.471619,124.323845 135.270264,121.928085 135.002045,118.401443 
	C136.351776,117.967155 137.700912,117.938828 139.896820,117.945267 
	C144.291443,118.250732 148.550995,116.879250 150.000534,121.991760 
	C148.434357,124.286621 146.868195,126.581482 144.636810,129.057678 
	C142.425491,129.637604 140.879395,130.036179 139.272537,130.450424 
	C139.553040,131.779144 139.788254,132.893265 139.616348,133.955872 
	C136.050888,133.927048 132.868134,133.723511 129.743713,134.060654 
	C127.982094,134.250763 126.365074,135.712463 124.598389,135.937332 
	C119.901299,136.535217 115.158340,136.772842 110.433624,137.153732 
z"/>
<path fill="#EFF6F8" opacity="1.000000" stroke="none" 
	d="
M152.357956,146.048126 
	C151.193863,144.200806 150.394302,142.281509 149.298584,139.801468 
	C148.949570,138.788544 148.896698,138.336349 148.843842,137.884155 
	C151.319550,135.229126 153.795273,132.574081 156.631653,129.955109 
	C159.595398,132.754745 162.198486,135.518326 164.817810,138.627350 
	C160.796860,141.307266 156.759689,143.641708 152.357956,146.048126 
z"/>
<path fill="#244557" opacity="1.000000" stroke="none" 
	d="
M150.358093,121.957001 
	C148.550995,116.879250 144.291443,118.250732 140.301636,117.949829 
	C138.939102,116.595413 138.018524,115.271187 137.538742,113.586700 
	C138.825485,113.178284 139.671417,113.130127 140.517563,113.066124 
	C140.517776,113.050278 140.541595,113.027786 140.707275,113.238281 
	C141.247025,113.290497 141.621094,113.132225 142.033249,112.968636 
	C142.071335,112.963326 142.135437,112.920837 142.432709,112.793739 
	C146.830658,112.112312 150.931320,111.557983 155.241516,110.899780 
	C155.717239,110.607155 155.890411,110.354607 155.982101,110.024704 
	C155.993652,110.011154 156.020691,109.987404 156.020691,109.987404 
	C157.646881,110.090309 159.273071,110.193214 160.954361,110.634247 
	C160.376831,111.670799 159.247757,112.331306 159.191040,113.073730 
	C158.782654,118.421082 155.034729,120.412415 150.358093,121.957001 
z"/>
<path fill="#6A8396" opacity="1.000000" stroke="none" 
	d="
M148.581192,137.677032 
	C148.896698,138.336349 148.949570,138.788544 149.038300,139.580673 
	C147.668472,140.980820 146.262772,142.041031 144.560883,143.086395 
	C143.664032,141.894394 143.063370,140.717285 142.221405,138.931152 
	C141.327881,136.883881 140.675659,135.445633 140.023453,134.007401 
	C139.788254,132.893265 139.553040,131.779144 139.272537,130.450424 
	C140.879395,130.036179 142.425491,129.637604 144.309311,129.208069 
	C145.870865,131.941391 147.094711,134.705658 148.581192,137.677032 
z"/>
<path fill="#3D5B70" opacity="1.000000" stroke="none" 
	d="
M147.839447,76.888397 
	C148.627197,78.859344 149.414948,80.830284 150.204514,82.805763 
	C152.833145,81.869339 155.064529,81.074432 157.625427,80.126297 
	C157.638947,84.024849 157.322968,88.076645 157.020660,92.577034 
	C157.034348,93.025635 157.009140,93.511696 156.999573,93.754868 
	C153.225525,96.698006 155.480225,100.598351 155.013489,103.954201 
	C154.841339,105.192032 154.753510,106.441597 154.270386,107.463120 
	C152.483780,103.548119 152.814774,98.847786 148.053284,96.636452 
	C147.979233,95.124702 147.930573,94.024849 147.908783,92.484924 
	C147.911484,89.682457 147.887299,87.320061 147.908218,84.509613 
	C147.805588,81.638855 147.657852,79.216156 147.598450,76.796341 
	C147.686798,76.799240 147.839447,76.888397 147.839447,76.888397 
z"/>
<path fill="#104160" opacity="1.000000" stroke="none" 
	d="
M148.078644,97.048347 
	C152.814774,98.847786 152.483780,103.548119 153.961456,107.617142 
	C154.574066,108.497063 155.138779,109.000282 155.862091,109.745453 
	C156.020691,109.987404 155.993652,110.011154 155.767303,110.120636 
	C155.271820,110.422501 155.102173,110.680344 155.031998,111.003647 
	C150.931320,111.557983 146.830658,112.112312 142.380524,112.391479 
	C142.025360,107.523933 142.019653,102.931549 142.419952,98.296890 
	C144.576843,97.852524 146.327744,97.450432 148.078644,97.048347 
z"/>
<path fill="#3D5B70" opacity="1.000000" stroke="none" 
	d="
M157.806458,99.101562 
	C157.972595,99.015625 157.990250,99.504715 157.988678,99.749329 
	C157.871490,99.725136 157.755905,99.456314 157.806458,99.101562 
z"/>
<path fill="#67B8CF" opacity="1.000000" stroke="none" 
	d="
M113.085556,109.906456 
	C111.967590,109.599480 110.849625,109.292503 109.363663,109.023788 
	C107.868462,108.999321 106.741257,108.936592 105.197319,108.754608 
	C104.563591,108.224640 104.346603,107.813927 104.102158,106.852173 
	C104.708710,105.217216 105.342705,104.133324 106.389008,103.032242 
	C108.689034,103.921143 110.576767,104.827240 112.713715,105.852951 
	C114.208038,104.123947 123.468979,105.091164 127.352280,107.999161 
	C129.191895,108.352386 130.635193,108.699402 131.771698,109.337006 
	C125.338432,109.720558 119.211998,109.813507 113.085556,109.906456 
z"/>
<path fill="#3AACCE" opacity="1.000000" stroke="none" 
	d="
M99.015465,105.760765 
	C98.569481,105.811760 98.123497,105.862747 97.328979,105.543320 
	C95.710114,104.445122 94.439796,103.717354 93.169472,102.989594 
	C92.482819,100.237175 91.796165,97.484756 91.369934,94.068649 
	C91.630363,83.509369 91.630363,73.613777 91.630363,63.718189 
	C91.958481,63.714798 92.286591,63.711407 92.614708,63.708015 
	C92.896515,66.674911 93.178314,69.641808 93.448517,72.486504 
	C95.796379,71.480293 97.725891,70.864510 99.404610,69.838409 
	C100.161713,69.375641 100.419052,68.095245 100.927292,66.871643 
	C100.944519,66.347519 100.937592,66.137573 100.965485,65.963501 
	C101.000305,65.999390 100.928558,65.930481 101.261246,65.951431 
	C102.424194,66.013702 103.254463,66.055031 102.840332,66.034416 
	C103.571030,67.266907 103.794113,67.643173 104.007233,68.407043 
	C104.655396,70.846954 105.313507,72.899277 105.570480,74.991753 
	C104.096626,75.091080 103.023911,75.150253 101.588501,75.115158 
	C100.488907,74.985847 99.752007,74.950798 99.006699,74.941788 
	C98.998283,74.967819 99.052765,74.964149 98.983398,74.679489 
	C98.314430,74.574593 97.714821,74.754364 97.097733,75.273941 
	C97.887131,77.766800 97.611412,80.776588 101.190392,80.799835 
	C101.225220,80.836227 101.316666,80.878517 101.096329,81.181442 
	C100.245918,82.987831 99.615837,84.491287 98.640640,86.018845 
	C97.318237,86.544662 96.340942,87.046379 95.363655,87.548088 
	C95.822205,87.784302 96.280754,88.020515 96.739304,88.256729 
	C96.469589,89.742172 95.958504,91.234207 95.998871,92.711174 
	C96.038261,94.151978 96.641228,95.577393 97.005417,97.404022 
	C97.676331,99.195366 98.338608,100.592239 98.999908,102.368225 
	C99.004440,103.751816 99.009956,104.756294 99.015465,105.760765 
z"/>
<path fill="#1078A5" opacity="1.000000" stroke="none" 
	d="
M100.903145,67.185822 
	C100.419052,68.095245 100.161713,69.375641 99.404610,69.838409 
	C97.725891,70.864510 95.796379,71.480293 93.448517,72.486504 
	C93.178314,69.641808 92.896515,66.674911 92.614708,63.708015 
	C92.286591,63.711407 91.958481,63.714798 91.630363,63.718189 
	C91.630363,73.613777 91.630363,83.509369 91.365158,93.704544 
	C90.475777,93.507935 89.851616,93.011742 89.096786,91.795380 
	C88.614708,86.031662 88.456146,80.962349 87.788193,75.961082 
	C87.600624,74.556740 85.915810,73.352364 84.905136,71.656754 
	C84.831413,70.203636 84.770317,69.150047 84.709229,68.096451 
	C84.785774,67.582870 84.862312,67.069290 85.345718,66.234947 
	C86.951393,64.350960 88.150208,62.787735 89.713654,61.126213 
	C96.362686,61.309410 102.647072,61.590897 108.542908,61.911076 
	C105.352875,62.563507 101.852844,61.909241 100.928558,65.930481 
	C100.928558,65.930481 101.000305,65.999390 100.708313,65.987335 
	C100.180908,66.105156 99.945496,66.235023 99.710083,66.364891 
	C100.107773,66.638535 100.505455,66.912178 100.903145,67.185822 
z"/>
<path fill="#3CA4C8" opacity="1.000000" stroke="none" 
	d="
M84.917763,72.056267 
	C85.915810,73.352364 87.600624,74.556740 87.788193,75.961082 
	C88.456146,80.962349 88.614708,86.031662 88.978912,91.514420 
	C87.353424,90.516396 85.715141,89.079170 84.010033,87.280136 
	C83.796867,83.775009 83.650520,80.631706 83.171234,77.235016 
	C82.860046,76.215240 82.881805,75.448853 83.178955,74.213745 
	C83.942154,73.182106 84.429955,72.619186 84.917763,72.056267 
z"/>
<path fill="#3CA4C8" opacity="1.000000" stroke="none" 
	d="
M93.102890,103.259552 
	C94.439796,103.717354 95.710114,104.445122 96.992279,105.541130 
	C95.764717,105.502113 94.525314,105.094856 93.126434,104.384438 
	C92.990089,103.897346 93.013199,103.713432 93.102890,103.259552 
z"/>
<path fill="#3CA4C8" opacity="1.000000" stroke="none" 
	d="
M99.378151,105.835892 
	C99.009956,104.756294 99.004440,103.751816 99.394440,102.372780 
	C101.849983,102.341278 103.910011,102.684341 105.977829,103.023689 
	C105.985611,103.019974 105.976692,103.049423 105.976700,103.049423 
	C105.342705,104.133324 104.708710,105.217216 104.035995,106.622910 
	C102.578468,106.600143 101.159653,106.255585 99.378151,105.835892 
z"/>
<path fill="#97BAC9" opacity="1.000000" stroke="none" 
	d="
M89.349014,61.224510 
	C88.150208,62.787735 86.951393,64.350960 85.392761,65.847900 
	C85.036209,64.462440 85.039482,63.143265 85.068909,61.426468 
	C87.118576,58.722260 89.142105,56.415672 91.492477,54.043831 
	C92.113632,55.055737 92.407944,56.132900 92.540909,57.555794 
	C91.369385,59.009190 90.359200,60.116848 89.349014,61.224510 
z"/>
<path fill="#97BAC9" opacity="1.000000" stroke="none" 
	d="
M84.905136,71.656754 
	C84.429955,72.619186 83.942154,73.182106 83.182678,73.829834 
	C83.285912,72.000122 83.660828,70.085609 84.372482,68.133774 
	C84.770317,69.150047 84.831413,70.203636 84.905136,71.656754 
z"/>
<path fill="#63C0D9" opacity="1.000000" stroke="none" 
	d="
M105.971626,74.951599 
	C105.313507,72.899277 104.655396,70.846954 104.361465,68.346664 
	C107.697418,66.838135 110.669182,65.777565 114.137840,64.539665 
	C114.139511,64.533676 114.482964,63.305477 115.117004,62.022636 
	C115.603035,61.942471 115.798492,61.916946 115.993958,61.891418 
	C115.993958,61.891418 116.425896,61.845200 116.687622,62.241898 
	C117.275703,63.651226 117.423767,65.425064 117.958000,65.550194 
	C120.927887,66.245804 123.991493,66.541252 127.232300,67.244141 
	C128.965515,67.336411 130.489441,67.158173 132.026840,67.368500 
	C132.337677,69.500610 132.635040,71.244164 132.682098,73.172623 
	C132.257874,73.948318 132.083969,74.539108 131.572174,75.092430 
	C130.781189,75.042839 130.328079,75.030716 129.570709,75.061340 
	C128.516357,75.733047 127.766258,76.362015 126.565491,77.006042 
	C119.400421,76.331276 112.686020,75.641441 105.971626,74.951599 
z"/>
<path fill="#2F83A2" opacity="1.000000" stroke="none" 
	d="
M132.932404,72.987724 
	C132.635040,71.244164 132.337677,69.500610 132.019775,67.378769 
	C131.999252,67.000481 131.984131,67.019447 132.233093,66.974411 
	C132.906937,66.666977 133.331848,66.404587 133.756744,66.142197 
	C135.745514,66.837944 137.734283,67.533691 139.465164,68.853226 
	C139.507233,72.005424 139.807175,74.533836 140.027115,77.370300 
	C139.022537,78.791969 138.097977,79.905594 137.117569,80.699005 
	C136.716995,79.871025 136.372284,79.363251 136.008057,78.594299 
	C135.956436,78.161499 135.924332,77.989876 135.884460,77.537323 
	C135.825623,76.885696 135.774567,76.515015 136.088120,76.047989 
	C136.875275,75.374001 137.297821,74.796356 137.720352,74.218719 
	C136.124374,73.808380 134.528381,73.398056 132.932404,72.987724 
z"/>
<path fill="#C9D2CA" opacity="1.000000" stroke="none" 
	d="
M140.107132,77.062256 
	C139.807175,74.533836 139.507233,72.005424 139.455368,69.212463 
	C141.772415,68.954826 143.841385,68.961731 146.341156,68.939621 
	C147.083847,71.308868 147.395721,73.707123 147.773529,76.496887 
	C147.839447,76.888397 147.686798,76.799240 147.204788,76.866119 
	C144.517563,76.976089 142.312347,77.019173 140.107132,77.062256 
z"/>
<path fill="#6A8396" opacity="1.000000" stroke="none" 
	d="
M115.966949,61.597164 
	C115.798492,61.916946 115.603035,61.942471 114.704971,61.996384 
	C112.312057,61.973980 110.621758,61.923183 108.931465,61.872387 
	C102.647072,61.590897 96.362686,61.309410 89.713654,61.126213 
	C90.359200,60.116848 91.369385,59.009190 92.745262,57.829739 
	C94.127083,57.867699 95.143196,57.977451 96.537292,58.152184 
	C99.335861,58.476818 101.756470,58.736469 104.602776,58.931511 
	C108.390015,59.278358 111.751556,59.689812 115.546936,60.111046 
	C115.967178,60.514854 115.953560,60.908882 115.966949,61.597164 
z"/>
<path fill="#2F83A2" opacity="1.000000" stroke="none" 
	d="
M132.006317,66.990211 
	C130.489441,67.158173 128.965515,67.336411 127.193085,66.906563 
	C125.476784,64.888824 123.356224,63.718674 125.054489,61.147293 
	C127.193573,61.287769 129.332657,61.428249 131.775726,62.183098 
	C132.047852,64.204796 132.015991,65.612122 131.984131,67.019447 
	C131.984131,67.019447 131.999252,67.000481 132.006317,66.990211 
z"/>
<path fill="#49A7BF" opacity="1.000000" stroke="none" 
	d="
M124.622589,61.088924 
	C123.356224,63.718674 125.476784,64.888824 126.983818,66.636055 
	C123.991493,66.541252 120.927887,66.245804 117.958000,65.550194 
	C117.423767,65.425064 117.275703,63.651226 116.904800,62.239082 
	C119.303741,61.569901 121.747215,61.300228 124.622589,61.088924 
z"/>
<path fill="#63C0D9" opacity="1.000000" stroke="none" 
	d="
M132.233093,66.974411 
	C132.015991,65.612122 132.047852,64.204796 132.131821,62.378311 
	C132.685577,63.132339 133.187225,64.305527 133.722809,65.810455 
	C133.331848,66.404587 132.906937,66.666977 132.233093,66.974411 
z"/>
<path fill="#ABA8A0" opacity="1.000000" stroke="none" 
	d="
M112.051003,48.063046 
	C112.857040,46.470493 113.663078,44.877941 114.592148,43.042294 
	C120.913376,44.921215 129.591660,41.812340 131.004257,52.576214 
	C129.303589,52.963863 127.596535,52.966370 125.452736,52.518875 
	C123.678520,48.144958 119.265282,46.096085 115.495659,47.520859 
	C114.431198,47.923180 113.203712,47.894207 112.051003,48.063046 
z"/>
<path fill="#BEB8AD" opacity="1.000000" stroke="none" 
	d="
M112.002487,48.405235 
	C113.203712,47.894207 114.431198,47.923180 115.495659,47.520859 
	C119.265282,46.096085 123.678520,48.144958 125.031479,52.450134 
	C120.605698,52.838856 116.164406,52.846321 111.301125,52.778145 
	C111.237404,51.384144 111.595680,50.065784 112.002487,48.405235 
z"/>
<path fill="#BEB8AD" opacity="1.000000" stroke="none" 
	d="
M107.911270,53.649521 
	C106.945488,53.515285 106.020996,53.123577 105.011772,52.411224 
	C105.799156,52.180729 106.671265,52.270878 107.752663,52.615822 
	C107.958817,53.044422 107.955688,53.218235 107.911270,53.649521 
z"/>
<path fill="#829CAD" opacity="1.000000" stroke="none" 
	d="
M113.327644,110.249161 
	C119.211998,109.813507 125.338432,109.720558 132.098480,109.472710 
	C134.837296,109.862572 136.942520,110.407341 139.303101,111.156616 
	C139.878113,111.934738 140.197739,112.508354 140.517349,113.081970 
	C139.671417,113.130127 138.825485,113.178284 137.555878,113.242798 
	C133.361420,112.531288 129.617249,111.564354 125.812592,111.140785 
	C121.761467,110.689804 117.653107,110.753105 113.327644,110.249161 
z"/>
<path fill="#173549" opacity="1.000000" stroke="none" 
	d="
M139.616348,133.955872 
	C140.675659,135.445633 141.327881,136.883881 142.036072,138.658905 
	C137.779922,137.422272 134.863251,139.219238 131.158691,141.736771 
	C127.575424,144.171875 122.230217,144.014267 117.228714,144.995438 
	C114.785957,142.590271 112.773438,140.185181 110.597267,137.466904 
	C115.158340,136.772842 119.901299,136.535217 124.598389,135.937332 
	C126.365074,135.712463 127.982094,134.250763 129.743713,134.060654 
	C132.868134,133.723511 136.050888,133.927048 139.616348,133.955872 
z"/>
<path fill="#6A8396" opacity="1.000000" stroke="none" 
	d="
M143.847473,144.239288 
	C143.987259,144.426743 143.879913,144.604630 143.624283,144.862427 
	C143.508438,144.961929 143.346466,144.566498 143.346466,144.566498 
	C143.346466,144.566498 143.632812,144.249329 143.847473,144.239288 
z"/>
<path fill="#1F6186" opacity="1.000000" stroke="none" 
	d="
M140.517563,113.066124 
	C140.197739,112.508354 139.878113,111.934738 139.143005,110.914185 
	C139.087143,107.617531 139.446793,104.767822 139.845917,101.611511 
	C139.873108,100.893127 139.860840,100.481339 139.919769,99.733887 
	C140.303223,98.598190 140.615509,97.798157 141.189072,97.144600 
	C141.638229,97.640434 141.826096,97.989799 142.013947,98.339165 
	C142.019653,102.931549 142.025360,107.523933 142.083252,112.518578 
	C142.135437,112.920837 142.071335,112.963326 141.669327,112.967415 
	C141.025406,112.990273 140.783493,113.009033 140.541595,113.027786 
	C140.541595,113.027786 140.517776,113.050278 140.517563,113.066124 
z"/>
<path fill="#2B495F" opacity="1.000000" stroke="none" 
	d="
M155.241516,110.899773 
	C155.102173,110.680344 155.271820,110.422501 155.755737,110.134186 
	C155.890411,110.354607 155.717239,110.607155 155.241516,110.899773 
z"/>
<path fill="#517682" opacity="1.000000" stroke="none" 
	d="
M140.707275,113.238281 
	C140.783493,113.009033 141.025406,112.990273 141.631241,112.972725 
	C141.621094,113.132225 141.247025,113.290497 140.707275,113.238281 
z"/>
<path fill="#ABA8A0" opacity="1.000000" stroke="none" 
	d="
M140.027115,77.370300 
	C142.312347,77.019173 144.517563,76.976089 147.116455,76.863220 
	C147.657852,79.216156 147.805588,81.638855 147.534988,84.512711 
	C144.453217,84.294388 141.789780,83.624908 138.850388,82.857841 
	C138.083664,82.448708 137.592911,82.137161 137.112366,81.623337 
	C137.122559,81.421066 137.173416,81.019203 137.173431,81.019211 
	C138.097977,79.905594 139.022537,78.791969 140.027115,77.370300 
z"/>
<path fill="#929393" opacity="1.000000" stroke="none" 
	d="
M139.126358,82.955429 
	C141.789780,83.624908 144.453217,84.294388 147.489868,84.960762 
	C147.887299,87.320061 147.911484,89.682457 147.558441,92.461258 
	C145.159058,92.244720 143.136902,91.611771 141.080933,90.576187 
	C140.406876,87.767517 139.766617,85.361473 139.126358,82.955429 
z"/>
<path fill="#6A8396" opacity="1.000000" stroke="none" 
	d="
M141.114746,90.978821 
	C143.136902,91.611771 145.159058,92.244720 147.531555,92.901337 
	C147.930573,94.024849 147.979233,95.124702 148.053284,96.636452 
	C146.327744,97.450432 144.576843,97.852524 142.419952,98.296890 
	C141.826096,97.989799 141.638229,97.640434 141.210022,96.742142 
	C140.941406,95.120316 140.913116,94.047432 140.933014,92.643272 
	C141.025726,91.867607 141.070236,91.423210 141.114746,90.978821 
z"/>
<path fill="#7ED3E4" opacity="1.000000" stroke="none" 
	d="
M96.996773,97.009560 
	C96.641228,95.577393 96.038261,94.151978 95.998871,92.711174 
	C95.958504,91.234207 96.469589,89.742172 96.739304,88.256729 
	C96.280754,88.020515 95.822205,87.784302 95.363655,87.548088 
	C96.340942,87.046379 97.318237,86.544662 99.021790,86.017235 
	C101.380547,86.876144 103.007301,87.771576 104.647240,88.642166 
	C106.116753,89.422279 107.600792,90.175034 109.318390,91.088219 
	C110.017220,91.571007 110.476074,91.905434 110.933159,92.430786 
	C110.931396,92.621719 110.991699,92.998795 111.025330,93.349113 
	C113.682861,95.440468 113.170311,101.952850 119.200943,99.198540 
	C122.619781,100.338402 125.790672,101.168320 129.347031,102.009300 
	C130.483704,103.342186 131.234909,104.664017 131.756989,106.182175 
	C130.003906,106.916656 128.479950,107.454803 126.955986,107.992950 
	C123.468979,105.091164 114.208038,104.123947 112.713715,105.852951 
	C110.576767,104.827240 108.689034,103.921143 106.389000,103.032242 
	C105.976692,103.049423 105.985611,103.019974 105.987221,102.603088 
	C106.025719,95.190056 100.459747,97.926308 96.996773,97.009560 
z"/>
<path fill="#49A7BF" opacity="1.000000" stroke="none" 
	d="
M127.352280,107.999161 
	C128.479950,107.454803 130.003906,106.916656 132.137527,106.190224 
	C133.986252,106.205360 135.225311,106.408775 135.054550,106.380737 
	C137.178574,104.386009 138.492508,103.152054 139.806442,101.918106 
	C139.446793,104.767822 139.087143,107.617531 138.887619,110.709671 
	C136.942520,110.407341 134.837296,109.862572 132.405304,109.182114 
	C130.635193,108.699402 129.191895,108.352386 127.352280,107.999161 
z"/>
<path fill="#D0F9FB" opacity="1.000000" stroke="none" 
	d="
M135.723511,76.144325 
	C135.774567,76.515015 135.825623,76.885696 135.609467,77.722549 
	C134.465775,79.443176 133.589310,80.697624 132.471603,82.118790 
	C131.506088,83.188728 130.781815,84.091957 129.798798,85.104431 
	C129.080185,85.531342 128.620316,85.849007 128.118988,86.123627 
	C128.077545,86.080574 127.994606,85.994514 127.994423,85.644012 
	C128.671555,83.869102 129.348877,82.444695 130.161743,80.957512 
	C130.190735,80.920296 130.084152,80.945869 129.594238,80.978523 
	C122.491554,83.450737 115.840630,86.835503 108.201813,82.270203 
	C107.770706,83.947334 107.373138,85.493980 106.709854,86.842987 
	C104.734978,84.723068 103.025826,82.800797 101.316666,80.878517 
	C101.316666,80.878517 101.225220,80.836227 101.176086,80.455772 
	C100.422997,78.355461 99.719048,76.635605 99.015106,74.915749 
	C99.752007,74.950798 100.488907,74.985847 101.811462,75.363525 
	C104.550499,76.883553 106.708504,78.052567 108.856407,79.239838 
	C116.544266,83.489357 122.544235,82.871872 128.428986,77.201233 
	C129.117767,76.441879 129.496384,75.730240 129.874985,75.018600 
	C130.328079,75.030716 130.781189,75.042839 131.636932,75.323380 
	C132.039597,75.591797 132.206390,76.041946 132.299332,76.356987 
	C133.358368,76.483788 134.324448,76.295547 135.396484,76.143410 
	C135.502426,76.179512 135.723511,76.144325 135.723511,76.144325 
z"/>
<path fill="#94DAE9" opacity="1.000000" stroke="none" 
	d="
M128.118835,77.248947 
	C122.544235,82.871872 116.544266,83.489357 108.856407,79.239838 
	C106.708504,78.052567 104.550499,76.883553 102.174164,75.457794 
	C103.023911,75.150253 104.096626,75.091080 105.570480,74.991753 
	C112.686020,75.641441 119.400421,76.331276 126.844040,77.057899 
	C127.755119,77.146103 127.936974,77.197525 128.118835,77.248947 
z"/>
<path fill="#3CA4C8" opacity="1.000000" stroke="none" 
	d="
M108.542908,61.911076 
	C110.621758,61.923183 112.312057,61.973980 114.414383,62.051025 
	C114.482964,63.305477 114.139511,64.533676 114.137840,64.539665 
	C110.669182,65.777565 107.697418,66.838135 104.371422,67.959076 
	C103.794113,67.643173 103.571030,67.266907 102.840332,66.034416 
	C103.254463,66.055031 102.424194,66.013702 101.261246,65.951431 
	C101.852844,61.909241 105.352875,62.563507 108.542908,61.911076 
z"/>
<path fill="#63C0D9" opacity="1.000000" stroke="none" 
	d="
M97.005417,97.404022 
	C100.459747,97.926308 106.025719,95.190056 105.979431,102.606812 
	C103.910011,102.684341 101.849983,102.341278 99.395424,101.993668 
	C98.338608,100.592239 97.676331,99.195366 97.005417,97.404022 
z"/>
<path fill="#94DAE9" opacity="1.000000" stroke="none" 
	d="
M101.096329,81.181442 
	C103.025826,82.800797 104.734978,84.723068 106.716385,86.826675 
	C106.988632,87.007996 106.964775,87.016411 107.090378,87.309692 
	C107.836800,88.715263 108.457611,89.827560 109.078423,90.939857 
	C107.600792,90.175034 106.116753,89.422279 104.647240,88.642166 
	C103.007301,87.771576 101.380547,86.876144 99.366905,85.993134 
	C99.615837,84.491287 100.245918,82.987831 101.096329,81.181442 
z"/>
<path fill="#94DAE9" opacity="1.000000" stroke="none" 
	d="
M99.006699,74.941788 
	C99.719048,76.635605 100.422997,78.355461 101.141251,80.419373 
	C97.611412,80.776588 97.887131,77.766800 97.419838,75.292770 
	C98.190536,74.969231 98.621651,74.966690 99.052765,74.964149 
	C99.052765,74.964149 98.998283,74.967819 99.006699,74.941788 
z"/>
<path fill="#3CA4C8" opacity="1.000000" stroke="none" 
	d="
M100.927292,66.871643 
	C100.505455,66.912178 100.107773,66.638535 99.710083,66.364891 
	C99.945496,66.235023 100.180908,66.105156 100.673492,65.951454 
	C100.937592,66.137573 100.944519,66.347519 100.927292,66.871643 
z"/>
<path fill="#D0F9FB" opacity="1.000000" stroke="none" 
	d="
M98.983398,74.679489 
	C98.621651,74.966690 98.190536,74.969231 97.437317,74.952957 
	C97.714821,74.754364 98.314430,74.574593 98.983398,74.679489 
z"/>
<path fill="#3CA4C8" opacity="1.000000" stroke="none" 
	d="
M136.088120,76.047989 
	C135.723511,76.144325 135.502426,76.179512 135.012238,76.100388 
	C133.750168,76.028152 132.978287,76.035049 132.206390,76.041946 
	C132.206390,76.041946 132.039597,75.591797 131.974823,75.360847 
	C132.083969,74.539108 132.257874,73.948318 132.682098,73.172623 
	C134.528381,73.398056 136.124374,73.808380 137.720352,74.218719 
	C137.297821,74.796356 136.875275,75.374001 136.088120,76.047989 
z"/>
<path fill="#49A7BF" opacity="1.000000" stroke="none" 
	d="
M128.428986,77.201233 
	C127.936974,77.197525 127.755119,77.146103 127.294716,77.042831 
	C127.766258,76.362015 128.516357,75.733047 129.570709,75.061340 
	C129.496384,75.730240 129.117767,76.441879 128.428986,77.201233 
z"/>
<path fill="#63C0D9" opacity="1.000000" stroke="none" 
	d="
M130.057526,84.995186 
	C130.781815,84.091957 131.506088,83.188728 132.797836,82.141449 
	C134.252731,80.950089 135.140152,79.902779 136.027573,78.855476 
	C136.372284,79.363251 136.716995,79.871025 137.117554,80.699005 
	C137.173416,81.019203 137.122559,81.421066 137.063751,81.948425 
	C136.664841,82.994217 136.324738,83.512657 135.626038,84.021545 
	C134.206467,84.317551 133.145523,84.623093 131.746658,84.943710 
	C130.958344,84.970917 130.507935,84.983055 130.057526,84.995186 
z"/>
<path fill="#49A7BF" opacity="1.000000" stroke="none" 
	d="
M136.008057,78.594299 
	C135.140152,79.902779 134.252731,80.950089 133.039078,81.974731 
	C133.589310,80.697624 134.465775,79.443176 135.617218,78.003494 
	C135.924332,77.989876 135.956436,78.161499 136.008057,78.594299 
z"/>
<path fill="#63C0D9" opacity="1.000000" stroke="none" 
	d="
M139.845917,101.611511 
	C138.492508,103.152054 137.178574,104.386009 135.054550,106.380737 
	C135.225311,106.408775 133.986252,106.205360 132.366638,105.993896 
	C131.234909,104.664017 130.483704,103.342186 129.491089,101.698364 
	C130.148804,99.591209 131.047913,97.806061 132.343002,96.005630 
	C134.829880,96.473740 138.624863,94.584190 137.649246,99.482002 
	C137.639709,99.529922 139.083359,99.867302 139.848572,100.069542 
	C139.860840,100.481339 139.873108,100.893127 139.845917,101.611511 
z"/>
<path fill="#49A7BF" opacity="1.000000" stroke="none" 
	d="
M139.919769,99.733887 
	C139.083359,99.867302 137.639709,99.529922 137.649246,99.482002 
	C138.624863,94.584190 134.829880,96.473740 132.117645,95.900650 
	C131.219086,95.611595 131.012115,95.355431 131.052765,94.746880 
	C133.164551,93.972572 135.098953,93.493874 137.420227,93.010628 
	C138.833008,92.995575 139.858917,92.985062 140.884827,92.974548 
	C140.913116,94.047432 140.941406,95.120316 140.948730,96.595657 
	C140.615509,97.798157 140.303223,98.598190 139.919769,99.733887 
z"/>
<path fill="#67B8CF" opacity="1.000000" stroke="none" 
	d="
M140.933014,92.643272 
	C139.858917,92.985062 138.833008,92.995575 137.399292,92.632370 
	C136.508240,91.545074 136.097824,90.280502 135.530197,90.205482 
	C131.158997,89.627731 132.074402,87.554688 134.223145,85.063919 
	C135.014465,84.687431 135.499542,84.359261 135.984634,84.031097 
	C136.324738,83.512657 136.664841,82.994217 137.053558,82.150696 
	C137.592911,82.137161 138.083664,82.448708 138.850388,82.857849 
	C139.766617,85.361473 140.406876,87.767517 141.080933,90.576187 
	C141.070236,91.423210 141.025726,91.867607 140.933014,92.643272 
z"/>
<path fill="#C2EFF5" opacity="1.000000" stroke="none" 
	d="
M106.982101,87.024307 
	C107.373138,85.493980 107.770706,83.947334 108.201813,82.270203 
	C115.840630,86.835503 122.491554,83.450737 129.605194,80.991997 
	C129.999481,80.998383 130.026199,81.020294 130.026199,81.020294 
	C129.348877,82.444695 128.671555,83.869102 127.626839,85.647469 
	C126.443115,86.466499 125.379501,86.740974 124.850433,87.427429 
	C121.301216,92.032509 116.757927,93.992691 110.991699,92.998795 
	C110.991699,92.998795 110.931396,92.621719 110.933174,92.052048 
	C109.611557,89.993729 108.288170,88.505066 106.964775,87.016411 
	C106.964775,87.016411 106.988632,87.007996 106.982101,87.024307 
z"/>
<path fill="#D0F9FB" opacity="1.000000" stroke="none" 
	d="
M111.025330,93.349113 
	C116.757927,93.992691 121.301216,92.032509 124.850433,87.427429 
	C125.379501,86.740974 126.443115,86.466499 127.627022,85.997971 
	C127.994606,85.994514 128.077545,86.080574 127.945877,86.412857 
	C125.848083,89.486969 123.881973,92.228806 121.664734,95.151947 
	C120.593407,96.518356 119.773201,97.703476 118.952988,98.888588 
	C113.170311,101.952850 113.682861,95.440468 111.025330,93.349113 
z"/>
<path fill="#94DAE9" opacity="1.000000" stroke="none" 
	d="
M119.200943,99.198540 
	C119.773201,97.703476 120.593407,96.518356 122.049271,95.161926 
	C125.415085,95.007896 128.145248,95.025192 130.875412,95.042480 
	C131.012115,95.355431 131.219086,95.611595 131.721680,95.915939 
	C131.047913,97.806061 130.148804,99.591209 129.105621,101.687302 
	C125.790672,101.168320 122.619781,100.338402 119.200943,99.198540 
z"/>
<path fill="#D0F9FB" opacity="1.000000" stroke="none" 
	d="
M107.090378,87.309692 
	C108.288170,88.505066 109.611557,89.993729 110.934937,91.861122 
	C110.476074,91.905434 110.017220,91.571007 109.318390,91.088219 
	C108.457611,89.827560 107.836800,88.715263 107.090378,87.309692 
z"/>
<path fill="#7ED3E4" opacity="1.000000" stroke="none" 
	d="
M131.052765,94.746880 
	C128.145248,95.025192 125.415085,95.007896 122.300392,94.980629 
	C123.881973,92.228806 125.848083,89.486969 127.987320,86.455902 
	C128.620316,85.849007 129.080185,85.531342 129.798798,85.104431 
	C130.507935,84.983055 130.958344,84.970917 132.051132,84.978180 
	C133.101303,85.035797 133.509109,85.074013 133.916901,85.112228 
	C132.074402,87.554688 131.158997,89.627731 135.530197,90.205482 
	C136.097824,90.280502 136.508240,91.545074 137.012421,92.636902 
	C135.098953,93.493874 133.164551,93.972572 131.052765,94.746880 
z"/>
<path fill="#2F83A2" opacity="1.000000" stroke="none" 
	d="
M132.299332,76.356987 
	C132.978287,76.035049 133.750168,76.028152 134.906311,76.064285 
	C134.324448,76.295547 133.358368,76.483788 132.299332,76.356987 
z"/>
<path fill="#C2EFF5" opacity="1.000000" stroke="none" 
	d="
M129.988525,80.984909 
	C130.084152,80.945869 130.190735,80.920296 130.161743,80.957512 
	C130.026199,81.020294 129.999481,80.998383 129.988525,80.984909 
z"/>
<path fill="#49A7BF" opacity="1.000000" stroke="none" 
	d="
M134.223145,85.063911 
	C133.509109,85.074013 133.101303,85.035797 132.389038,84.963104 
	C133.145523,84.623093 134.206467,84.317551 135.626038,84.021545 
	C135.499542,84.359261 135.014465,84.687431 134.223145,85.063911 
z"/>
</svg>